<?xml version="1.0" standalone="no"?>
<!DOCTYPE svg PUBLIC "-//W3C//DTD SVG 20010904//EN"
 "http://www.w3.org/TR/2001/REC-SVG-20010904/DTD/svg10.dtd">
<svg version="1.0" xmlns="http://www.w3.org/2000/svg"
 width="450.000000pt" height="332.000000pt" viewBox="0 0 450.000000 332.000000"
 preserveAspectRatio="xMidYMid meet">
<metadata>
Created by potrace 1.10, written by Peter Selinger 2001-2011
</metadata>
<g transform="translate(0.000000,332.000000) scale(0.050000,-0.050000)"
fill="#000000" stroke="none">
<path d="M720 3330 l0 -2940 740 741 740 741 730 -733 730 -733 731 733 731
732 739 -740 739 -741 0 2940 0 2940 -1470 -1470 -1470 -1470 -1470 1470
-1470 1470 0 -2940z m260 2438 c0 -16 16 -28 35 -28 29 -1 30 -4 6 -19 -23
-14 -17 -21 24 -32 30 -7 59 -30 66 -51 6 -21 19 -38 28 -38 23 0 395 -379
384 -390 -5 -6 0 -10 12 -10 31 0 325 -303 325 -334 0 -14 11 -26 25 -26 34
-1 157 -111 141 -127 -7 -7 -3 -13 9 -13 25 0 465 -439 465 -464 0 -10 8 -14
17 -8 9 6 43 -25 75 -68 32 -44 65 -79 74 -80 24 0 74 -53 74 -77 0 -11 18
-26 40 -33 22 -7 40 -25 40 -39 0 -15 20 -40 45 -56 59 -39 275 -252 275 -271
0 -9 27 -31 60 -51 34 -20 56 -44 49 -54 -6 -11 -4 -19 5 -19 9 0 43 -23 75
-51 109 -93 190 -134 251 -125 l59 9 -84 -92 c-266 -289 -1326 -1317 -1331
-1291 -4 17 -13 31 -20 32 -85 10 -107 9 -117 -7 -6 -9 -33 -26 -59 -36 -26
-10 -48 -32 -48 -49 0 -19 -14 -29 -35 -26 -20 3 -33 -5 -30 -19 3 -14 -10
-25 -28 -25 -19 0 -28 -6 -21 -13 17 -16 -87 -107 -122 -107 -15 0 -22 -7 -16
-16 5 -9 -21 -50 -59 -91 -38 -41 -69 -69 -69 -61 0 8 -19 -8 -42 -34 -23 -26
-51 -46 -62 -43 -10 4 -14 -2 -8 -12 6 -10 -38 -64 -98 -120 -61 -56 -110
-113 -110 -127 -1 -18 -7 -17 -20 4 -13 21 -20 22 -22 5 -2 -14 -4 -35 -5 -48
-2 -12 -20 -33 -41 -45 -51 -30 -157 -132 -138 -132 9 0 -10 -17 -42 -38 -62
-41 -112 -36 -112 11 0 18 10 24 25 14 19 -11 20 -8 2 14 -36 45 -45 292 -10
271 9 -6 16 2 16 18 0 16 -7 24 -16 18 -9 -6 -17 4 -17 22 0 18 8 28 17 22 9
-6 16 2 16 18 0 16 -7 24 -16 18 -27 -16 -20 61 8 91 20 21 20 28 0 35 -16 6
-25 53 -25 139 0 75 8 125 19 118 10 -6 24 -2 31 9 7 12 1 19 -14 15 -20 -4
-26 34 -26 160 0 91 -4 165 -10 165 -18 0 3 249 22 269 10 10 18 28 18 40 0
12 -9 8 -20 -9 -16 -24 -19 -21 -20 16 0 32 8 42 25 31 19 -11 20 -8 3 14 -13
16 -24 106 -26 199 -2 120 3 161 17 140 18 -26 20 -25 21 5 0 19 -9 35 -20 35
-27 0 -18 125 9 145 14 10 13 14 -3 15 -17 0 -23 105 -24 393 -1 216 -6 398
-12 403 -5 6 6 29 25 51 19 22 25 34 12 27 -16 -10 -23 126 -24 511 -1 343 5
515 17 495 12 -18 20 -20 20 -6 0 13 -9 29 -20 36 -45 28 -25 928 20 916 22
-6 40 -23 40 -38z m5427 -13 c-7 -12 -11 -225 -9 -473 3 -249 4 -461 4 -472
-8 -353 -2 -1453 7 -1469 8 -12 0 -27 -18 -33 -17 -7 -26 -19 -21 -28 14 -22
-87 -124 -110 -110 -11 7 -15 0 -10 -14 10 -30 -130 -196 -167 -196 -13 0 -34
-23 -47 -51 -13 -28 -35 -46 -49 -41 -22 9 -52 -16 -58 -48 -10 -46 -39 -80
-66 -75 -20 3 -31 -7 -29 -25 3 -16 -26 -52 -63 -80 -37 -27 -64 -55 -60 -62
4 -7 -14 -22 -42 -35 -27 -12 -49 -34 -49 -48 0 -31 -143 -147 -170 -138 -11
3 -14 1 -7 -7 7 -7 -27 -54 -75 -105 -48 -52 -88 -101 -88 -110 0 -9 -22 -25
-50 -35 -27 -10 -50 -28 -50 -40 0 -11 -16 -20 -36 -20 -20 0 -47 -11 -60 -24
-13 -13 -24 -16 -24 -7 0 9 -17 -3 -38 -27 -22 -25 -45 -43 -52 -42 -13 3
-164 -136 -241 -224 -23 -25 -79 -77 -125 -116 -46 -38 -83 -81 -84 -95 0 -14
-9 -25 -19 -25 -25 0 -120 -95 -107 -107 5 -5 -10 -15 -32 -23 -23 -7 -42 -25
-42 -40 0 -15 -27 -44 -60 -63 -33 -20 -60 -42 -60 -50 0 -32 -183 -198 -204
-185 -12 8 -17 5 -10 -6 14 -21 -91 -126 -126 -126 -11 0 -20 -12 -20 -27 0
-41 -106 -142 -156 -149 -24 -4 -44 3 -44 14 0 11 -12 16 -27 10 -15 -6 -33 4
-40 21 -6 17 -24 31 -40 31 -49 0 -86 59 -52 83 22 14 17 16 -16 7 -32 -9 -45
-4 -45 17 0 17 -19 36 -42 43 -22 8 -37 18 -31 23 5 5 -30 46 -79 91 -48 44
-82 91 -75 103 8 13 6 17 -2 9 -22 -19 -91 19 -91 50 0 13 -27 45 -60 71 -33
26 -54 58 -47 70 8 13 7 17 -1 10 -28 -25 -178 117 -158 149 7 11 4 15 -7 9
-21 -14 -240 203 -232 230 4 10 -1 13 -10 8 -9 -6 -52 20 -96 58 -46 40 -67
68 -49 69 27 0 27 3 0 20 -21 13 -22 19 -5 20 15 0 35 23 45 50 10 28 33 50
51 50 17 0 26 8 20 19 -7 10 28 52 78 93 49 41 85 82 79 91 -6 10 3 17 19 17
15 0 42 21 59 46 16 25 71 77 120 115 50 38 96 86 101 106 7 23 20 31 35 22
15 -10 19 -7 10 7 -7 13 5 34 27 48 23 14 41 38 41 52 0 17 14 22 38 15 32
-10 38 -4 33 37 -3 28 0 48 7 46 23 -7 142 93 142 120 0 14 20 26 43 26 24 0
38 6 30 13 -19 20 49 88 73 73 11 -7 14 -2 6 11 -8 14 6 32 35 45 30 14 46 34
39 50 -6 16 2 28 17 28 15 0 52 23 81 50 30 28 68 50 85 50 17 0 104 76 194
169 91 93 172 164 181 158 10 -5 15 -2 11 8 -6 21 184 215 209 215 9 0 16 6
17 14 1 25 364 386 383 381 9 -3 23 10 29 30 20 56 111 145 135 131 12 -7 16
-5 8 3 -17 19 103 144 129 136 10 -4 13 2 7 12 -6 10 4 31 22 46 23 18 29 19
19 2 -9 -14 -11 -25 -5 -25 6 0 25 27 42 61 18 33 40 55 51 48 10 -6 19 1 19
17 0 29 114 134 145 134 10 0 11 10 4 21 -7 12 5 26 27 32 21 6 49 32 61 59
12 26 52 66 88 88 36 22 59 40 51 40 -12 0 285 301 397 403 21 19 90 88 156
154 65 67 127 115 138 109 10 -7 14 -3 7 8 -12 20 56 97 96 110 11 3 18 13 15
22 -4 10 3 11 15 4 11 -7 15 -23 7 -35z m84 -2547 c-19 -28 -37 -71 -40 -95
-3 -23 -11 -56 -18 -73 -7 -16 -9 -48 -5 -70 4 -22 3 -46 -1 -54 -4 -7 -8
-344 -10 -750 -1 -525 -8 -740 -24 -751 -17 -11 -17 -19 -1 -30 27 -18 32
-140 7 -156 -11 -6 -19 -22 -19 -35 0 -14 8 -12 20 6 14 22 19 9 19 -50 0 -59
-5 -72 -19 -50 -15 23 -19 17 -20 -26 0 -31 7 -52 16 -47 8 6 17 -12 20 -40 2
-28 -5 -44 -16 -37 -11 7 -20 4 -20 -7 0 -11 11 -25 25 -30 14 -6 2 -9 -27 -6
-55 4 -125 59 -104 81 7 6 3 12 -10 12 -31 0 -135 101 -129 124 4 10 -4 13
-16 5 -12 -7 -26 5 -33 29 -6 23 -16 38 -23 34 -7 -4 -159 139 -338 319 -189
189 -314 330 -300 336 14 5 2 11 -27 11 -29 1 -72 19 -97 41 -36 31 -55 35
-97 19 -29 -11 -47 -13 -38 -4 56 62 1345 1346 1351 1346 4 0 -8 -23 -26 -52z"/>
</g>
</svg>
