<svg xmlns="http://www.w3.org/2000/svg" version="1.0" width="469.000000pt" height="301.000000pt" viewBox="0 0 469.000000 301.000000" preserveAspectRatio="xMidYMid meet" transform="matrix(1, 0, 0, 1, 0, 0)">

<g transform="translate(0.000000,301.000000) scale(0.100000,-0.100000)" fill="#00e3d1" stroke="none">
<path d="M2190 2506 c-6 -6 -10 -417 -10 -1092 0 -995 1 -1083 17 -1095 24 -21 441 -14 463 7 13 13 15 74 12 457 -2 243 1 447 5 454 6 8 116 12 398 13 215 1 402 2 418 1 l27 -1 0 -458 c0 -343 3 -461 12 -470 9 -9 76 -12 239 -12 193 0 228 2 239 16 11 12 13 226 12 1096 -1 594 -5 1084 -8 1089 -8 13 -451 11 -475 -1 -18 -10 -19 -26 -19 -415 0 -317 -3 -405 -12 -405 -119 -3 -823 2 -827 6 -4 3 -7 180 -8 394 -1 269 -5 395 -13 410 -11 21 -15 21 -236 18 -124 -2 -229 -7 -234 -12z" fill="#00e3d1"/>
<path d="M845 2448 c-6 -20 -22 -115 -35 -203 -11 -82 -37 -258 -49 -330 l-6 -40 -137 -3 -137 -3 -10 -37 c-11 -43 -10 -231 2 -249 6 -9 41 -13 118 -13 81 0 111 -3 115 -13 2 -7 0 -53 -7 -103 -6 -49 -14 -114 -18 -145 -4 -31 -12 -63 -18 -71 -9 -10 -44 -14 -134 -16 -70 -2 -129 -7 -136 -14 -9 -7 -13 -45 -13 -138 0 -158 -2 -155 127 -156 52 0 99 -6 105 -12 11 -11 9 -47 -15 -202 -31 -206 -39 -276 -35 -330 l3 -55 125 -3 c69 -1 135 0 147 3 28 7 39 42 57 190 40 318 53 397 68 407 7 4 63 7 123 6 l110 -3 3 -45 c2 -25 -1 -74 -7 -110 -15 -91 -28 -187 -43 -314 -16 -139 -19 -136 148 -136 160 0 152 -7 174 160 6 47 15 112 20 145 5 33 14 96 20 140 23 171 17 165 160 165 98 0 110 2 120 19 5 11 10 71 10 135 0 144 -2 146 -109 146 -109 0 -116 6 -102 101 5 41 13 104 17 141 3 37 11 74 18 83 8 12 36 16 123 18 144 3 147 5 151 125 2 54 -2 102 -10 127 l-13 40 -92 5 c-51 3 -97 10 -103 16 -9 9 -9 33 -1 90 5 44 19 149 30 234 29 222 30 225 19 243 -8 15 -29 17 -147 17 -104 0 -141 -3 -150 -13 -6 -8 -16 -49 -21 -93 -6 -43 -15 -108 -20 -144 -6 -36 -17 -120 -25 -187 -9 -68 -18 -129 -21 -138 -5 -12 -27 -15 -118 -15 -61 0 -117 4 -125 9 -13 8 -12 30 3 158 10 81 21 164 26 183 4 19 13 74 20 122 18 121 23 118 -157 118 -106 0 -145 -3 -148 -12z m441 -893 c11 -8 12 -23 4 -70 -5 -33 -14 -90 -20 -126 -5 -37 -10 -78 -10 -92 0 -14 -6 -29 -12 -34 -15 -9 -197 -14 -227 -6 -27 7 -27 39 -1 198 14 87 24 123 37 133 21 16 207 13 229 -3z" fill="#00e3d1"/>
</g>
</svg>